<?xml version="1.0" encoding="UTF-8"?>
<svg width="25px" height="12px" viewBox="0 0 25 12" version="1.1" xmlns="http://www.w3.org/2000/svg" xmlns:xlink="http://www.w3.org/1999/xlink">
    <!-- Generator: sketchtool 51 (57462) - http://www.bohemiancoding.com/sketch -->
    <title>F727E42B-EB1E-4887-8F8D-BF9D59E6CB84</title>
    <desc>Created with sketchtool.</desc>
    <defs></defs>
    <g id="01---Homepage" stroke="none" stroke-width="1" fill="none" fill-rule="evenodd">
        <g id="Home---Extra-large:-Desktops---12-col" transform="translate(-752.000000, -282.000000)">
            <rect fill="#FFFFFF" x="0" y="0" width="1440" height="4454"></rect>
            <g id="list_menu" transform="translate(720.000000, 95.000000)" fill="#FF0000" fill-rule="nonzero">
                <g id="cars_transport" transform="translate(24.000000, 173.000000)">
                    <g id="car" transform="translate(8.000000, 14.000000)">
                        <path d="M23.7991304,9.72547826 L21.7468174,9.72547826 C21.4696435,9.72547826 21.2454522,9.50129217 21.2454522,9.22411304 C21.2454522,8.94693391 21.4696383,8.72274783 21.7468174,8.72274783 L23.2977652,8.72172887 L23.2977652,5.83990278 L18.0365478,3.952668 C18.0049591,3.9414587 17.9743878,3.92719252 17.9458539,3.90884974 L14.28768,1.68738887 C10.4205496,0.629641043 4.6130713,1.7424167 3.67054957,1.93602887 L1.62843652,3.82631583 C1.37164174,4.06476626 1.22388,4.40103757 1.22388,4.75159409 L1.22388,8.72281148 L2.27244522,8.72281148 C2.54961913,8.72281148 2.77381043,8.94699757 2.77381043,9.2241767 C2.77381043,9.50135583 2.54962696,9.72554191 2.27244522,9.72554191 L0.722514783,9.72554191 C0.44534087,9.72554191 0.221149565,9.50135583 0.221149565,9.2241767 L0.221149565,4.751568 C0.221149565,4.12282017 0.486088696,3.51752452 0.94668,3.0905593 L3.09071478,1.10549843 C3.15593217,1.04435583 3.23643391,1.00257757 3.32305043,0.983215826 C3.60124174,0.921055826 10.1852243,-0.508645043 14.62392,0.739670609 C14.6677383,0.751898609 14.7095165,0.770241913 14.74824,0.793678435 L18.4218052,3.02432191 L23.9684139,5.01345235 C24.1681409,5.08580191 24.3006052,5.2753393 24.3006052,5.48627843 L24.3006052,9.22297409 C24.3006052,9.50116539 24.0764191,9.7253567 23.79924,9.7253567 L23.7991304,9.72547826 Z" id="Shape"></path>
                        <path d="M16.8208696,9.72547826 L7.19817391,9.72547826 C6.921,9.72547826 6.6968087,9.50129217 6.6968087,9.22411304 C6.6968087,8.94693391 6.92099478,8.72274783 7.19817391,8.72274783 L16.8208696,8.72274783 C17.0980435,8.72274783 17.3222348,8.94693391 17.3222348,9.22411304 C17.3222348,9.50129217 17.0980487,9.72547826 16.8208696,9.72547826 Z" id="Shape"></path>
                        <path d="M19.284,11.7696522 C17.6240087,11.7696522 16.2738261,10.4194435 16.2738261,8.75947826 C16.2738261,7.09951304 17.6240348,5.74930435 19.284,5.74930435 C20.9439652,5.74930435 22.2941739,7.09951304 22.2941739,8.75947826 C22.2941739,10.4194435 20.9439652,11.7696522 19.284,11.7696522 Z M19.284,6.75313043 C18.1773391,6.75313043 17.2775478,7.65292174 17.2775478,8.75958261 C17.2775478,9.86624348 18.1773391,10.7660348 19.284,10.7660348 C20.3906609,10.7660348 21.2904522,9.86624348 21.2904522,8.75958261 C21.2914714,7.65292174 20.3906609,6.75313043 19.284,6.75313043 Z" id="Shape"></path>
                        <path d="M4.73530435,11.7696522 C3.07531304,11.7696522 1.72513043,10.4194435 1.72513043,8.75947826 C1.72513043,7.09951304 3.07533913,5.74930435 4.73530435,5.74930435 C6.39529565,5.74930435 7.74547826,7.09951304 7.74547826,8.75947826 C7.74547826,10.4194435 6.39526957,11.7696522 4.73530435,11.7696522 Z M4.73530435,6.75313043 C3.62864348,6.75313043 2.72885217,7.65292174 2.72885217,8.75958261 C2.72885217,9.86624348 3.62864348,10.7660348 4.73530435,10.7660348 C5.84196522,10.7660348 6.74175652,9.86624348 6.74175652,8.75958261 C6.74277548,7.65292174 5.84196522,6.75313043 4.73530435,6.75313043 Z" id="Shape"></path>
                        <path d="M14.2672174,4.74756522 L3.73252174,4.74756522 C3.45534783,4.74756522 3.23115652,4.52337913 3.23115652,4.2462 C3.23115652,3.96902087 3.45534261,3.74483478 3.73252174,3.74483478 L14.2672174,3.74483478 C14.5443913,3.74483478 14.7685826,3.96902087 14.7685826,4.2462 C14.7696018,4.52337391 14.5443965,4.74756522 14.2672174,4.74756522 Z" id="Shape"></path>
                    </g>
                </g>
            </g>
        </g>
    </g>
</svg>